<?xml version="1.0" standalone="no"?>
<!DOCTYPE svg PUBLIC "-//W3C//DTD SVG 20010904//EN"
 "http://www.w3.org/TR/2001/REC-SVG-20010904/DTD/svg10.dtd">
<svg version="1.0" xmlns="http://www.w3.org/2000/svg"
 width="17px" height="20px" viewBox="0 0 462.000000 540.000000"
 preserveAspectRatio="xMidYMid meet">

<g transform="translate(0.000000,540.000000) scale(0.100000,-0.100000)"
fill="#2188D9" stroke="none">
<path d="M1135 5360 c-108 -9 -178 -23 -265 -52 -398 -131 -693 -454 -794
-870 -32 -129 -36 -367 -32 -1828 2 -1073 6 -1464 15 -1519 57 -344 257 -658
541 -846 178 -119 370 -186 589 -206 75 -6 504 -9 1226 -7 1001 3 1118 5 1188
21 241 52 430 151 596 311 144 139 234 277 295 447 74 207 69 115 74 1404 2
834 0 1171 -8 1198 -7 25 -22 45 -43 57 -30 19 -54 20 -493 20 -277 0 -484 4
-520 11 -329 58 -596 292 -706 619 l-32 95 -6 535 c-5 497 -6 538 -23 564 -38
57 -22 56 -799 54 -392 0 -753 -4 -803 -8z m1162 -1804 c36 -17 60 -38 80 -67
l28 -43 5 -674 5 -675 205 212 c113 117 224 224 248 238 122 72 282 -11 299
-155 12 -104 12 -103 -446 -563 -395 -396 -418 -418 -465 -428 -39 -10 -58 -9
-101 4 -50 14 -72 34 -460 427 -445 450 -451 458 -443 555 11 128 133 213 257
177 51 -14 67 -29 275 -241 l221 -225 5 674 5 674 27 41 c31 48 113 93 167 93
20 0 59 -11 88 -24z"/>
<path d="M3194 5216 c-27 -27 -34 -42 -34 -72 -1 -22 -1 -212 -1 -424 1 -324
3 -394 17 -440 56 -192 216 -338 410 -375 57 -11 160 -15 422 -15 310 0 351 2
382 18 45 22 75 79 66 127 -7 36 -1 29 -421 470 -115 121 -244 256 -286 300
-323 341 -402 421 -421 432 -13 7 -40 12 -61 13 -31 0 -46 -7 -73 -34z"/>
</g>
</svg>
